<svg width="48" height="54" viewBox="0 0 48 54" fill="none" xmlns="http://www.w3.org/2000/svg">
<g filter="url(#filter0_i_302_120)">
<path d="M37.007 7.45607H45.3147C46.8252 7.45607 48 8.51046 48 9.86611V11.5983C48 12.728 47.0769 13.7824 45.9021 14.0084V49.7824C45.9021 52.1172 43.7203 54 41.035 54H6.96503C4.27972 54 2.18182 52.1172 2.18182 49.7824V14.0084C1.00699 13.7824 0 12.728 0 11.5983V9.86611C0 8.51046 1.25874 7.45607 2.76923 7.45607H10.993V4.29289C10.993 1.95816 13.0909 0 15.7762 0H32.2238C34.9091 0 37.007 1.95816 37.007 4.29289V7.45607ZM32.2238 3.76569H15.7762C15.3566 3.76569 15.1049 3.99163 15.1049 4.29289V7.45607H32.8951V4.29289C32.8951 3.99163 32.6434 3.76569 32.2238 3.76569ZM8.30769 49.1799H39.7762C40.1119 49.1799 40.3636 48.8033 40.3636 48.5021V14.0837H7.63636V48.5021C7.63636 48.8033 7.88811 49.1799 8.30769 49.1799ZM14.7692 46.3933H14.2657C12.7552 46.3933 11.4965 45.2636 11.4965 43.9079V19.2803C11.4965 18 12.7552 16.9456 14.2657 16.9456H14.7692C16.1958 16.9456 17.4545 18 17.4545 19.2803V43.9079C17.4545 45.2636 16.1958 46.3933 14.7692 46.3933ZM24.2517 46.3933H23.8322C22.3217 46.3933 21.0629 45.2636 21.0629 43.9079V19.2803C21.0629 18 22.3217 16.9456 23.8322 16.9456H24.2517C25.7622 16.9456 27.021 18 27.021 19.2803V43.9079C27.021 45.2636 25.7622 46.3933 24.2517 46.3933ZM33.7343 46.3933H33.3147C31.8042 46.3933 30.6294 45.2636 30.6294 43.9079V19.2803C30.6294 18 31.8042 16.9456 33.3147 16.9456H33.7343C35.2448 16.9456 36.5035 18 36.5035 19.2803V43.9079C36.5035 45.2636 35.2448 46.3933 33.7343 46.3933Z" fill="#151515"/>
</g>
<path d="M36.507 7.45607V7.95607H37.007H45.3147C46.6013 7.95607 47.5 8.83609 47.5 9.86611V11.5983C47.5 12.4656 46.7701 13.3323 45.8077 13.5174L45.4021 13.5954V14.0084V49.7824C45.4021 51.7756 43.5144 53.5 41.035 53.5H6.96503C4.49756 53.5 2.68182 51.7861 2.68182 49.7824V14.0084V13.5954L2.27625 13.5174C1.28988 13.3277 0.5 12.4435 0.5 11.5983V9.86611C0.5 8.85466 1.46151 7.95607 2.76923 7.95607H10.993H11.493V7.45607V4.29289C11.493 2.2784 13.3208 0.5 15.7762 0.5H32.2238C34.6792 0.5 36.507 2.2784 36.507 4.29289V7.45607ZM14.6049 7.45607V7.95607H15.1049H32.8951H33.3951V7.45607V4.29289C33.3951 3.99214 33.2647 3.71806 33.0329 3.52891C32.8083 3.34567 32.5201 3.26569 32.2238 3.26569H15.7762C15.4799 3.26569 15.1917 3.34567 14.9671 3.52891C14.7353 3.71806 14.6049 3.99214 14.6049 4.29289V7.45607ZM40.8636 14.0837V13.5837H40.3636H7.63636H7.13636V14.0837V48.5021C7.13636 49.0149 7.55157 49.6799 8.30769 49.6799H39.7762C40.1413 49.6799 40.4193 49.4761 40.587 49.2653C40.7535 49.0561 40.8636 48.7792 40.8636 48.5021V14.0837ZM14.7692 45.8933H14.2657C12.9792 45.8933 11.9965 44.938 11.9965 43.9079V19.2803C11.9965 18.3536 12.947 17.4456 14.2657 17.4456H14.7692C15.9935 17.4456 16.9545 18.3446 16.9545 19.2803V43.9079C16.9545 44.9474 15.9615 45.8933 14.7692 45.8933ZM24.2517 45.8933H23.8322C22.5456 45.8933 21.5629 44.938 21.5629 43.9079V19.2803C21.5629 18.3536 22.5134 17.4456 23.8322 17.4456H24.2517C25.5705 17.4456 26.521 18.3536 26.521 19.2803V43.9079C26.521 44.938 25.5383 45.8933 24.2517 45.8933ZM33.7343 45.8933H33.3147C32.0489 45.8933 31.1294 44.9571 31.1294 43.9079V19.2803C31.1294 18.3353 32.0172 17.4456 33.3147 17.4456H33.7343C35.053 17.4456 36.0035 18.3536 36.0035 19.2803V43.9079C36.0035 44.938 35.0208 45.8933 33.7343 45.8933Z" stroke="black"/>
<defs>
<filter id="filter0_i_302_120" x="0" y="0" width="48" height="58" filterUnits="userSpaceOnUse" color-interpolation-filters="sRGB">
<feFlood flood-opacity="0" result="BackgroundImageFix"/>
<feBlend mode="normal" in="SourceGraphic" in2="BackgroundImageFix" result="shape"/>
<feColorMatrix in="SourceAlpha" type="matrix" values="0 0 0 0 0 0 0 0 0 0 0 0 0 0 0 0 0 0 127 0" result="hardAlpha"/>
<feOffset dy="4"/>
<feGaussianBlur stdDeviation="2"/>
<feComposite in2="hardAlpha" operator="arithmetic" k2="-1" k3="1"/>
<feColorMatrix type="matrix" values="0 0 0 0 0 0 0 0 0 0 0 0 0 0 0 0 0 0 0.25 0"/>
<feBlend mode="normal" in2="shape" result="effect1_innerShadow_302_120"/>
</filter>
</defs>
</svg>
